<?xml version="1.0" encoding="utf-8"?>
<!-- Generator: Adobe Illustrator 15.0.2, SVG Export Plug-In . SVG Version: 6.00 Build 0)  -->
<!DOCTYPE svg PUBLIC "-//W3C//DTD SVG 1.1//EN" "http://www.w3.org/Graphics/SVG/1.1/DTD/svg11.dtd">
<svg version="1.1" id="о_нас" xmlns="http://www.w3.org/2000/svg" xmlns:xlink="http://www.w3.org/1999/xlink" x="0px" y="0px"
	 width="100px" height="86px" viewBox="0 0 100 86" enable-background="new 0 0 100 86" xml:space="preserve">
<polygon id="закладка" points="53.982,17.584 53.982,31.826 56.749,28.461 59.285,30.628 59.285,15.586 "/>
<path id="контур_книги" fill="none" stroke="#000000" stroke-width="3" stroke-miterlimit="10" d="M8.5,73.5V18.854
	c0,0,24.438-11.91,42.421,0c0,0,17.985-11.911,40.579,0.233V73.5c0,0-22.824-6.307-41.499,0C50.001,73.5,33.169,66.729,8.5,73.5z"/>
<g id="строка_1">
	<path d="M12.89,23.707c1.202-0.81,2.5-1.427,3.812-2.012c1.381-0.271,2.763-0.529,4.155-0.724c2.782-0.398,5.589-0.618,8.403-0.647
		c2.813-0.028,5.633,0.139,8.427,0.534c1.397,0.196,2.787,0.452,4.165,0.767c1.31,0.61,2.584,1.274,3.776,2.083
		c-1.44-0.046-2.833-0.128-4.222-0.133c-1.32-0.302-2.654-0.548-3.998-0.736c-2.687-0.379-5.407-0.542-8.127-0.514
		c-2.721,0.028-5.443,0.242-8.14,0.627c-1.348,0.197-2.693,0.419-4.02,0.72L12.89,23.707z"/>
</g>
<g id="строка_2">
	<path d="M12.89,27.952c1.202-0.81,2.5-1.427,3.812-2.012c1.381-0.272,2.763-0.529,4.155-0.724c2.782-0.397,5.589-0.618,8.403-0.647
		c2.813-0.028,5.633,0.14,8.427,0.534c1.397,0.196,2.787,0.452,4.165,0.767c1.309,0.61,2.584,1.274,3.775,2.083
		c-1.44-0.046-2.833-0.128-4.222-0.133c-1.32-0.302-2.654-0.548-3.998-0.736C34.72,26.705,32,26.542,29.28,26.57
		c-2.721,0.028-5.443,0.242-8.14,0.627c-1.348,0.197-2.693,0.419-4.02,0.72L12.89,27.952z"/>
</g>
<g id="строка_3">
	<path d="M12.89,32.195c1.202-0.81,2.5-1.427,3.812-2.012c1.381-0.271,2.763-0.529,4.155-0.724c2.782-0.398,5.589-0.618,8.403-0.647
		c2.813-0.028,5.633,0.139,8.427,0.534c1.397,0.196,2.787,0.452,4.165,0.767c1.31,0.61,2.584,1.274,3.776,2.083
		c-1.44-0.046-2.833-0.128-4.222-0.133c-1.32-0.302-2.654-0.548-3.998-0.736c-2.687-0.379-5.407-0.542-8.127-0.514
		c-2.721,0.028-5.443,0.242-8.14,0.627c-1.348,0.197-2.693,0.419-4.02,0.72L12.89,32.195z"/>
</g>
<g id="строка_4">
	<path d="M12.89,36.758c1.201-0.812,2.499-1.429,3.811-2.016c1.381-0.272,2.763-0.531,4.155-0.726c2.782-0.399,5.59-0.62,8.404-0.65
		c2.813-0.028,5.634,0.14,8.429,0.536c1.397,0.197,2.787,0.454,4.165,0.77c1.309,0.611,2.583,1.276,3.774,2.086
		c-1.44-0.048-2.833-0.131-4.223-0.137c-1.32-0.303-2.654-0.549-3.997-0.738c-2.687-0.38-5.407-0.543-8.128-0.516
		c-2.721,0.028-5.443,0.243-8.14,0.629c-1.348,0.198-2.693,0.421-4.02,0.723L12.89,36.758z"/>
</g>
<g id="строка_5">
	<path d="M12.89,41.535c1.202-0.81,2.5-1.427,3.812-2.012c1.381-0.271,2.763-0.529,4.155-0.724c2.782-0.398,5.589-0.618,8.403-0.647
		c2.813-0.028,5.633,0.139,8.427,0.534c1.397,0.196,2.787,0.452,4.165,0.767c1.31,0.61,2.584,1.274,3.776,2.083
		c-1.44-0.046-2.833-0.128-4.222-0.133c-1.32-0.302-2.654-0.548-3.998-0.736c-2.687-0.379-5.407-0.542-8.127-0.514
		c-2.721,0.028-5.443,0.242-8.14,0.627c-1.348,0.197-2.693,0.419-4.02,0.72L12.89,41.535z"/>
</g>
<g id="строка_6">
	<path d="M12.89,45.619c1.202-0.811,2.5-1.428,3.812-2.014c1.381-0.271,2.763-0.527,4.155-0.723
		c2.782-0.398,5.589-0.618,8.403-0.647c2.813-0.028,5.633,0.139,8.427,0.534c1.397,0.196,2.787,0.452,4.165,0.767
		c1.31,0.609,2.584,1.273,3.776,2.083c-1.44-0.046-2.833-0.129-4.222-0.134c-1.32-0.303-2.654-0.547-3.998-0.735
		c-2.687-0.38-5.407-0.542-8.127-0.515c-2.721,0.027-5.443,0.242-8.14,0.627c-1.348,0.197-2.693,0.42-4.02,0.721L12.89,45.619z"/>
</g>
<g id="строка_7">
	<path d="M12.89,49.964c1.202-0.812,2.5-1.427,3.813-2.012c1.38-0.271,2.762-0.529,4.154-0.724c2.782-0.397,5.589-0.619,8.403-0.647
		c2.813-0.028,5.633,0.14,8.427,0.532c1.397,0.197,2.787,0.453,4.165,0.769c1.31,0.609,2.584,1.272,3.776,2.082
		c-1.44-0.046-2.833-0.128-4.222-0.133c-1.32-0.302-2.654-0.548-3.998-0.735c-2.687-0.38-5.407-0.541-8.127-0.515
		c-2.721,0.028-5.443,0.241-8.14,0.627c-1.348,0.196-2.693,0.419-4.02,0.722L12.89,49.964z"/>
</g>
<g id="строка_8">
	<path d="M12.89,54.457c1.202-0.811,2.5-1.428,3.812-2.014c1.381-0.271,2.763-0.528,4.155-0.723
		c2.782-0.398,5.589-0.619,8.403-0.648c2.813-0.027,5.633,0.141,8.427,0.533c1.397,0.197,2.787,0.453,4.165,0.769
		c1.309,0.61,2.584,1.274,3.775,2.083c-1.44-0.046-2.833-0.129-4.222-0.135c-1.32-0.301-2.654-0.547-3.998-0.735
		c-2.687-0.379-5.407-0.541-8.128-0.515c-2.721,0.029-5.443,0.242-8.14,0.628c-1.348,0.196-2.693,0.42-4.02,0.721L12.89,54.457z"/>
</g>
<g id="строка_9">
	<path d="M12.89,58.307c1.202-0.812,2.5-1.428,3.813-2.013c1.38-0.271,2.762-0.528,4.154-0.724c2.782-0.397,5.589-0.618,8.403-0.647
		c2.813-0.028,5.633,0.14,8.427,0.533c1.397,0.196,2.787,0.452,4.165,0.769c1.31,0.608,2.584,1.272,3.776,2.082
		c-1.44-0.047-2.833-0.129-4.222-0.134c-1.32-0.302-2.654-0.548-3.998-0.735c-2.687-0.379-5.407-0.541-8.127-0.515
		c-2.721,0.028-5.443,0.242-8.14,0.627c-1.348,0.197-2.693,0.419-4.02,0.722L12.89,58.307z"/>
</g>
<g id="строка_10">
	<path d="M12.89,63.081c1.202-0.812,2.5-1.427,3.813-2.013c1.38-0.271,2.762-0.528,4.154-0.723c2.782-0.398,5.589-0.619,8.403-0.648
		c2.813-0.027,5.633,0.141,8.427,0.533c1.397,0.197,2.787,0.453,4.165,0.769c1.31,0.608,2.584,1.272,3.776,2.082
		c-1.44-0.046-2.833-0.128-4.222-0.134c-1.32-0.301-2.654-0.547-3.998-0.735c-2.687-0.379-5.407-0.541-8.127-0.515
		c-2.721,0.029-5.443,0.242-8.14,0.628c-1.348,0.196-2.693,0.419-4.02,0.721L12.89,63.081z"/>
</g>
<path id="серый_лист_2" fill="#D2D2D2" d="M83.827,17.453c0,0,4.442,0.934,6.06,2.335v51.608l-14.031-2.101
	c0,0,5.963-0.274,7.463-3.642c1.496-3.365-0.774-38.752-0.447-40.091C83.198,24.226,83.827,17.453,83.827,17.453z"/>
<path id="серый_лист_1" fill="#E3E3E3" d="M79.32,16.427c0,0,3.236,0.001,4.394-3.363c1.157-3.365,0,54.125,0,54.125
	s-1.155,1.625-7.858,2.107l4.187-4.566L79.32,16.427z"/>
<path id="белый_лист" fill="#FFFFFF" stroke="#FFFFFF" stroke-miterlimit="10" d="M73.102,17.156
	c0,0,4.742,0.365,6.467-4.778l-2.213,51.249c0,0-0.683,4.178-5.213,4.68L73.102,17.156z"/>
</svg>
