<?xml version="1.0" encoding="utf-8"?>
<!-- Generator: Adobe Illustrator 15.0.2, SVG Export Plug-In . SVG Version: 6.00 Build 0)  -->
<!DOCTYPE svg PUBLIC "-//W3C//DTD SVG 1.1//EN" "http://www.w3.org/Graphics/SVG/1.1/DTD/svg11.dtd">
<svg version="1.1" id="контакты" xmlns="http://www.w3.org/2000/svg" xmlns:xlink="http://www.w3.org/1999/xlink" x="0px"
	 y="0px" width="100px" height="86px" viewBox="0 0 100 86" enable-background="new 0 0 100 86" xml:space="preserve">
<g>
	<path id="круг" d="M41.961,4.865c26.555-5.08,46.705,12.949,47.217,36.463c1.161,53.429-77.241,52.986-78.01,2.145
		C10.831,21.228,25.087,8.091,41.961,4.865z M28.617,20.951C15.544,39.664,53.793,75.882,71.727,67.068
		c1.545-3.037,4.152-4.961,4.108-9.654c-4.263-4.844-9.907-8.236-16.425-10.727c-2.942,1.576-4.148,4.961-6.158,7.508
		c-4.142-4.967-10.122-8.012-12.318-15.012c3.285-0.86,5.823-2.498,6.159-6.436C44.925,23.213,35.676,10.847,28.617,20.951z"/>
	<path id="трубка" fill="#4B7C00" d="M47.093,32.748c-0.336,3.938-2.875,5.576-6.159,6.436
		c2.196,7,8.177,10.044,12.318,15.013c2.01-2.547,3.216-5.934,6.158-7.508c6.518,2.488,12.162,5.881,16.425,10.726
		c0.044,4.692-2.563,6.616-4.108,9.653c-17.934,8.813-56.183-27.403-43.109-46.116C35.676,10.847,44.925,23.213,47.093,32.748z"/>
</g>
</svg>
