<?xml version="1.0" encoding="utf-8"?>
<!-- Generator: Adobe Illustrator 15.0.2, SVG Export Plug-In . SVG Version: 6.00 Build 0)  -->
<!DOCTYPE svg PUBLIC "-//W3C//DTD SVG 1.1//EN" "http://www.w3.org/Graphics/SVG/1.1/DTD/svg11.dtd">
<svg version="1.1" id="контакты" xmlns="http://www.w3.org/2000/svg" xmlns:xlink="http://www.w3.org/1999/xlink" x="0px"
	 y="0px" width="100px" height="86px" viewBox="0 0 100 86" enable-background="new 0 0 100 86" xml:space="preserve">
<g>
	<path id="круг_x2C__трубка" d="M41.869,4.861c26.867-5.073,47.254,12.934,47.771,36.422
		c1.174,53.369-78.146,52.925-78.927,2.143C10.373,21.208,24.797,8.086,41.869,4.861z M28.369,20.931
		C15.142,39.624,53.84,75.797,71.984,66.993c1.563-3.031,4.199-4.952,4.154-9.642c-4.312-4.836-10.021-8.229-16.615-10.711
		c-2.979,1.569-4.199,4.951-6.23,7.498c-4.19-4.963-10.242-8.005-12.462-14.999c3.322-0.858,5.89-2.494,6.231-6.427
		C44.868,23.19,35.511,10.836,28.369,20.931z"/>
</g>
</svg>
