<?xml version="1.0" encoding="utf-8"?>
<!-- Generator: Adobe Illustrator 15.0.2, SVG Export Plug-In . SVG Version: 6.00 Build 0)  -->
<!DOCTYPE svg PUBLIC "-//W3C//DTD SVG 1.1//EN" "http://www.w3.org/Graphics/SVG/1.1/DTD/svg11.dtd">
<svg version="1.1" id="акции" xmlns="http://www.w3.org/2000/svg" xmlns:xlink="http://www.w3.org/1999/xlink" x="0px" y="0px"
	 width="100px" height="86px" viewBox="0 0 100 86" enable-background="new 0 0 100 86" xml:space="preserve">
<polygon id="звезда" points="55.846,9.645 65.184,5.384 68.857,14.918 79.131,14.8 78.585,24.996 88.021,29.039 
	83.348,38.131 90.311,45.639 82.32,52.057 85.609,61.729 75.682,64.361 74.725,74.527 64.578,72.923 59.547,81.82 50.936,76.254 
	42.691,82.352 37.103,73.783 27.079,76.023 25.479,65.938 15.405,63.932 18.073,54.072 9.69,48.167 16.164,40.239 10.923,31.457 
	20.083,26.83 18.889,16.689 29.151,16.164 32.212,6.418 41.802,10.085 48.588,2.42 "/>
<ellipse id="круг" fill="#FFFFFF" cx="50" cy="42.385" rx="25.007" ry="24.848"/>
<text transform="matrix(1.0064 0 0 1 32.6592 56.3262)" font-family="'Vrinda'" font-size="48.3522">%</text>
</svg>
