<?xml version="1.0" encoding="utf-8"?>
<!-- Generator: Adobe Illustrator 15.0.2, SVG Export Plug-In . SVG Version: 6.00 Build 0)  -->
<!DOCTYPE svg PUBLIC "-//W3C//DTD SVG 1.1//EN" "http://www.w3.org/Graphics/SVG/1.1/DTD/svg11.dtd">
<svg version="1.1" id="меню" xmlns="http://www.w3.org/2000/svg" xmlns:xlink="http://www.w3.org/1999/xlink" x="0px" y="0px"
	 width="100px" height="86px" viewBox="0 0 100 86" enable-background="new 0 0 100 86" xml:space="preserve">
<rect id="черный_квадрат" x="30" y="33.5" width="40.5" height="50.5"/>
<path d="M72.639,55.45c0,9.526,0,19.053,0,28.579c-2.594,0-5.188,0-7.785,0c-0.438-7.516-2.508-14.053-0.974-21.682
	c1.338-6.652,10.315-14.098,0-19.708c-5.205-0.086-6.587,5.072-6.813,7.884c-0.34,4.231,3.791,6.455,4.867,11.824
	c1.578,7.875-0.582,14.313-0.974,21.682c-3.244,0-6.487,0-9.731,0c-2.35-9.631-0.805-22.004,1.944-29.564
	c-1.132,0.16-1.731-0.217-1.944-0.984c-2.066,0.549-3.337-1.08-6.813,1.973c4.517,5.55,5.048,19.484,2.92,28.576
	c-2.595,0-5.191,0-7.786,0c-1.611-12.491-0.786-27.452-0.974-41.387c-4.078,5.396-4.235,14.762-4.866,23.65
	c-0.368,3.001,3.538,1.673,3.893,3.94c0.699,5.638-1.038,8.805-0.974,13.797c-3.569,0-7.137,0-10.707,0c0-9.195,0-18.396,0-27.594
	c-6.955-3.004-13.961-8.846-12.653-18.724c0.532-4.018,3.226-7.495,6.813-9.855c0.175-10.99,5.731-16.534,15.573-17.738
	c3.325-4.847,8.17-8.152,17.52-6.898c3.269,1.292,5.058,4.083,7.787,5.913c13.206-1.538,22.117,6.506,18.493,18.724
	C88.738,35.559,85.342,53.99,72.639,55.45z"/>
<path id="нож" fill="#4B7C00" d="M35.591,83.859l1.448-14.604c0,0-3.453-0.948-3.353-2.519c0.1-1.571,0.763-10.391,0.763-10.391
	s0.729-5.592,1.224-7.265c0.495-1.673,0.977-4.222,2.902-6.443v20.11L38.5,67.833c0,0,0.429,16.196,1.048,16.196
	C40.167,84.029,35.591,83.859,35.591,83.859z"/>
<path id="вилка" fill="#4B7C00" d="M47.334,84c0,0,2.748-12.424,0.041-21.936c0,0-0.679-3.871-2.902-6.566V44.281h1.11v9.48
	c0,0,0.57,1.358,1.167,0.625l0.292-10.105h0.971v10.385c0,0,0.852,0.779,1.405,0V44.281h1.021v10.105c0,0,0.517,1.082,1.187-0.625
	v-9.48h1.125v11.189c0,0-4.763,14.803-1.548,28.358L47.334,84z"/>
<path id="ложка" fill="#4B7C00" d="M60.96,84.216c0,0,0.726-6.747,0.993-9.217V62.637c0,0-0.77-2.847-1.639-4.271
	c0,0-3.09-4.533-3.17-6.096c0,0-1.574-3.961,1.35-7.771c0,0,3.35-3.994,7.595-0.818c0,0,4.661,3.281,1.911,9.176
	c0,0-3.534,6.832-4,8.832c0,0-0.932,3.008-0.466,7.004v4.664c0,0,1.483,9.636,1.309,10.691"/>
<rect id="белый_квадрат" x="24.167" y="83.5" fill="#FFFFFF" width="49.667" height="1.584"/>
</svg>
