<?xml version="1.0" encoding="utf-8"?>
<!-- Generator: Adobe Illustrator 15.0.2, SVG Export Plug-In . SVG Version: 6.00 Build 0)  -->
<!DOCTYPE svg PUBLIC "-//W3C//DTD SVG 1.1//EN" "http://www.w3.org/Graphics/SVG/1.1/DTD/svg11.dtd">
<svg version="1.1" id="новости" xmlns="http://www.w3.org/2000/svg" xmlns:xlink="http://www.w3.org/1999/xlink" x="0px"
	 y="0px" width="100px" height="86px" viewBox="0 0 100 86" enable-background="new 0 0 100 86" xml:space="preserve">
<path id="контур" fill="none" stroke="#000000" stroke-width="3.2" stroke-miterlimit="10" d="M22.25,61.41V5h54.496v75.709
	l-36.764-17.98c0,0-1.573,7.064-6.215,8.502c-0.943,0.291-2.013,0.354-3.221,0.076C30.546,71.307,23.712,73.449,22.25,61.41z"/>
<line id="контур_2" fill="none" stroke="#000000" stroke-width="3.2" stroke-miterlimit="10" x1="30.546" y1="71.307" x2="76.909" y2="80.708"/>
<line id="м._текст_1" fill="none" stroke="#000000" stroke-width="2" stroke-miterlimit="10" x1="25.911" y1="27.761" x2="35.997" y2="27.761"/>
<line id="м._текс_2" fill="none" stroke="#000000" stroke-width="2" stroke-miterlimit="10" x1="25.99" y1="32.544" x2="36.076" y2="32.544"/>
<line id="м._текст_3" fill="none" stroke="#000000" stroke-width="2" stroke-miterlimit="10" x1="25.992" y1="36.833" x2="36.078" y2="36.833"/>
<line id="м._текст_4" fill="none" stroke="#000000" stroke-width="2" stroke-miterlimit="10" x1="25.99" y1="41.617" x2="36.076" y2="41.617"/>
<line id="м._текст_5" fill="none" stroke="#000000" stroke-width="2" stroke-miterlimit="10" x1="25.828" y1="46.234" x2="35.914" y2="46.234"/>
<line id="м._текс_6" fill="none" stroke="#000000" stroke-width="2" stroke-miterlimit="10" x1="25.829" y1="50.688" x2="35.916" y2="50.688"/>
<line id="м._текст_7" fill="none" stroke="#000000" stroke-width="2" stroke-miterlimit="10" x1="25.828" y1="55.143" x2="35.914" y2="55.143"/>
<line id="м._текст_8" fill="none" stroke="#000000" stroke-width="2" stroke-miterlimit="10" x1="25.83" y1="59.62" x2="35.916" y2="59.62"/>
<line id="м._текст_9" fill="none" stroke="#000000" stroke-width="2" stroke-miterlimit="10" x1="25.911" y1="63.454" x2="35.997" y2="63.454"/>
<line id="б._текст_1" fill="none" stroke="#000000" stroke-width="2" stroke-miterlimit="10" x1="37.5" y1="27.761" x2="72.5" y2="27.761"/>
<line id="б._текст_2" fill="none" stroke="#000000" stroke-width="2" stroke-miterlimit="10" x1="37.5" y1="32.491" x2="72.5" y2="32.491"/>
<line id="б._текст_3" fill="none" stroke="#000000" stroke-width="2" stroke-miterlimit="10" x1="37.5" y1="36.779" x2="72.5" y2="36.779"/>
<line id="б._текст_4" fill="none" stroke="#000000" stroke-width="2" stroke-miterlimit="10" x1="37.5" y1="41.507" x2="72.5" y2="41.507"/>
<line id="б._текст_5" fill="none" stroke="#000000" stroke-width="2" stroke-miterlimit="10" x1="37.5" y1="46.016" x2="72.5" y2="46.016"/>
<line id="б._текст_6" fill="none" stroke="#000000" stroke-width="2" stroke-miterlimit="10" x1="37.5" y1="50.688" x2="72.5" y2="50.688"/>
<line id="б._текст_7" fill="none" stroke="#000000" stroke-width="2" stroke-miterlimit="10" x1="37.5" y1="55.143" x2="72.5" y2="55.143"/>
<line id="б_текст_8" fill="none" stroke="#000000" stroke-width="2" stroke-miterlimit="10" x1="37.5" y1="59.62" x2="72.5" y2="59.62"/>
<line id="б._текст_9" fill="none" stroke="#000000" stroke-width="2" stroke-miterlimit="10" x1="72.5" y1="63.454" x2="42.833" y2="63.454"/>
<line id="б._текст_10" fill="none" stroke="#000000" stroke-width="2" stroke-miterlimit="10" x1="72.377" y1="67.714" x2="51.846" y2="67.714"/>
<text transform="matrix(0.9934 0 0 1 25.5781 20.9985)" font-family="'Arial-BoldMT'" font-size="15.8344">NEWS</text>
<text transform="matrix(0.9934 0 0 1 25.5781 20.9985)" fill="none" stroke="#000000" stroke-miterlimit="10" font-family="'Arial-BoldMT'" font-size="15.8344">NEWS</text>
</svg>
